<?xml version="1.0" standalone="no"?><!DOCTYPE svg PUBLIC "-//W3C//DTD SVG 1.1//EN" "http://www.w3.org/Graphics/SVG/1.1/DTD/svg11.dtd"><svg t="1613885365998" class="icon" viewBox="0 0 1024 1024" version="1.1" xmlns="http://www.w3.org/2000/svg" p-id="1765" xmlns:xlink="http://www.w3.org/1999/xlink" width="200" height="200"><defs><style type="text/css"></style></defs><path d="M482.7 251.4s-26 7.4-41.9-0.3c-13.5-6.5-20.3-30.1-11.6-47.2 10.2-20.1 21.6-22.4 40.3-26 18.7-3.6 115.5-24.5 129.7-26.5 14.1-2 29.9-3.7 34.4 22.2 4.2 24.5-3.9 36.5-20.1 41.7-20.7 6.7-32.7 10.1-32.7 10.1l-98.1 26z" fill="#7D1D2B" p-id="1766"></path><path d="M674.6 612.5c-1 0-2 0-2.9-0.2-15.2-1.6-26.3-15.3-24.7-30.5 1.6-15.5 16.8-93.4-12.7-193.7-27.9-94.7-104.5-147.2-105-147.7-11.3-10.3-12.1-27.9-1.9-39.2 10.3-11.3 27.8-12.2 39.1-2 2.8 2.5 88.6 62.7 121.1 173.2 31.9 108.5 17.1 191.8 14.7 215.1-1.6 14.4-13.7 25-27.7 25z" fill="#7D1D2B" p-id="1767"></path><path d="M387.7 622.5c-7.6 0-15.2-3.1-20.7-9.2-10.2-11.4-9.3-29 2.1-39.2 26.5-23.7 91.1-120.2 113-180.9 27-74.6 0.2-152.6-0.1-153.4-5.1-14.4 2.5-30.3 16.9-35.4 14.4-5.1 30.3 2.4 35.4 16.8 1.4 3.9 33.9 97.1 0 190.9-23.9 66.2-93.6 172.4-128.2 203.4-5.1 4.7-11.8 7-18.4 7z" fill="#7D1D2B" p-id="1768"></path><path d="M347.1 716.8m-156.7 0a156.7 156.7 0 1 0 313.4 0 156.7 156.7 0 1 0-313.4 0Z" fill="#ED3135" p-id="1769"></path><path d="M347.1 560c-5.3 0-10.6 0.3-15.8 0.8 47.2 27 79.1 77.8 79.1 136.1 0 81.2-61.8 148-141 155.9 22.9 13.1 49.4 20.6 77.6 20.6 86.6 0 156.7-70.2 156.7-156.7S433.7 560 347.1 560z" fill="#DB1830" p-id="1770"></path><path d="M235.9 727.9c-6.1 0-11.1-5-11.1-11.1 0-50.5 28.2-95.8 73.5-118.2 5.5-2.7 12.2-0.5 14.9 5 2.7 5.5 0.5 12.2-5 14.9-37.7 18.6-61.1 56.3-61.1 98.3-0.1 6.1-5.1 11.1-11.2 11.1z" fill="#F2705A" p-id="1771"></path><path d="M239.3 750.5m-11.1 0a11.1 11.1 0 1 0 22.2 0 11.1 11.1 0 1 0-22.2 0Z" fill="#F2705A" p-id="1772"></path><path d="M676.8 704.1m-156.7 0a156.7 156.7 0 1 0 313.4 0 156.7 156.7 0 1 0-313.4 0Z" fill="#ED3135" p-id="1773"></path><path d="M688.8 547.8c-5.3-0.4-10.6-0.5-15.8-0.4 45 30.5 72.9 83.6 68.5 141.8-6.2 81-72.9 142.9-152.4 144.8 21.8 14.8 47.7 24.3 75.9 26.5 86.3 6.6 161.6-58 168.2-144.4s-58.1-161.7-144.4-168.3z" fill="#DB1830" p-id="1774"></path><path d="M565 706.7c-6.1-0.5-10.7-5.8-10.2-11.9 3.8-50.4 35.4-93.4 82.3-112.3 5.7-2.3 12.2 0.5 14.4 6.2 2.3 5.7-0.5 12.2-6.2 14.4-39 15.7-65.2 51.5-68.4 93.4-0.4 6.1-5.8 10.7-11.9 10.2z" fill="#F2705A" p-id="1775"></path><path d="M566.8 729.5m-11.1 0a11.1 11.1 0 1 0 22.2 0 11.1 11.1 0 1 0-22.2 0Z" fill="#F2705A" p-id="1776"></path></svg>