<?xml version="1.0" standalone="no"?><!DOCTYPE svg PUBLIC "-//W3C//DTD SVG 1.1//EN" "http://www.w3.org/Graphics/SVG/1.1/DTD/svg11.dtd"><svg t="1613884850436" class="icon" viewBox="0 0 1024 1024" version="1.1" xmlns="http://www.w3.org/2000/svg" p-id="6176" xmlns:xlink="http://www.w3.org/1999/xlink" width="200" height="200"><defs><style type="text/css"></style></defs><path d="M512 0c286.72 0 512 225.28 512 512s-225.28 512-512 512-512-225.28-512-512 225.28-512 512-512z" fill="#FF931D" p-id="6177"></path><path d="M802.669714 516.608l-385.609143-256c-7.314286-3.657143-9.801143-4.608-8.996571-4.608-5.12 0-5.778286 0.585143-5.778286 1.462857v520.777143c0-0.804571 0.950857 1.609143 3.218286 6.582857 1.609143 2.633143 4.096 3.072 7.753143 0.950857l383.780571-253.586285 8.704-8.704c1.097143-3.072 0-4.973714-3.072-6.875429zM408.064 182.857143c14.848 0 23.698286 3.291429 45.568 14.555428l388.022857 257.316572c38.765714 23.259429 48.274286 71.094857 25.307429 109.421714l-5.558857 7.094857-18.285715 17.334857-390.875428 259.072c-38.4 23.04-86.162286 13.458286-110.738286-27.721142-9.069714-17.993143-12.361143-26.843429-12.361143-41.691429V257.462857c0-42.569143 34.523429-74.605714 78.921143-74.605714z" fill="#FFFFFF" p-id="6178"></path></svg>